<svg id="Capa_1" enable-background="new 0 0 512 512" height="512" viewBox="0 0 512 512" width="512" xmlns="http://www.w3.org/2000/svg"><g><g><g><g><g><g><g><circle cx="256" cy="256" fill="#ff6c52" r="256"/></g></g></g></g></g></g><path d="m512 256c0-5.846-.196-11.646-.582-17.395l-193.962-193.963-6.1 54.019-43.554-43.554-50.622 69.242 27.345 27.345-48.558 14.438 157.066 157.065-7.577 7.577-136.115-136.115-120.933 225.131 74.921 74.921c28.736 11.164 59.988 17.289 92.671 17.289 141.385 0 256-114.615 256-256z" fill="#f92814"/><g><path d="m228.952 290.489c12.282 0 23.372 5.103 31.267 13.304v-55.814h-52.51c6.244-7.517 9.999-17.175 9.999-27.711 0-23.967-19.429-43.395-43.396-43.395s-43.396 19.428-43.396 43.395c0 10.536 3.755 20.194 9.999 27.711h-52.507v171.811h171.811v-55.814c-7.895 8.201-18.984 13.304-31.267 13.304-23.967 0-43.396-19.429-43.396-43.396.001-23.966 19.43-43.395 43.396-43.395z" fill="#a3d4ff"/></g><g><path d="m228.952 290.489c12.282 0 23.372 5.103 31.267 13.304v-55.814h-52.51c6.244-7.517 9.999-17.176 9.999-27.711 0-23.967-19.429-43.396-43.396-43.396-.242 0-.481.014-.723.019v242.9h86.629v-55.814c-7.895 8.201-18.984 13.304-31.267 13.304-23.967 0-43.396-19.429-43.396-43.396s19.431-43.396 43.397-43.396z" fill="#65b1fc"/></g><g><path d="m325.406 96.811c8.685-8.685 20.135-12.918 31.516-12.701l-39.467-39.467-37.13 37.13c-.9-9.731-5.074-19.216-12.524-26.666-16.947-16.947-44.424-16.947-61.371 0s-16.947 44.423 0 61.371c7.45 7.45 16.935 11.624 26.666 12.524l-37.13 37.13 121.489 121.489 36.022-36.022c.914 10.273 5.302 20.295 13.164 28.158 17.795 17.794 46.645 17.795 64.439 0 17.794-17.794 17.794-46.645 0-64.439-7.863-7.863-17.885-12.25-28.158-13.164l36.022-36.022-39.467-39.467c.217 11.381-4.017 22.831-12.702 31.516-16.947 16.947-44.424 16.947-61.371 0-16.945-16.947-16.945-44.423.002-61.37z" fill="#ffce00"/></g><g><path d="m431.081 215.318c-7.863-7.863-17.885-12.25-28.158-13.165l36.022-36.022-39.467-39.466c.217 11.381-4.017 22.831-12.702 31.516-16.947 16.947-44.424 16.947-61.371 0-.325-.325-.631-.661-.944-.993l-68.719 68.719 61.713 61.713 36.022-36.022c.914 10.273 5.302 20.295 13.164 28.158 17.794 17.794 46.645 17.794 64.439 0 17.795-17.793 17.795-46.644.001-64.438z" fill="#fdba12"/></g><g><path d="m347.915 396.715h-30v-1.428c0-16.218 8.337-31.085 22.301-39.769 4.386-2.727 6.889-7.636 6.532-12.811-.464-6.724-6.094-12.354-12.818-12.818-3.918-.268-7.635 1.042-10.475 3.691-2.844 2.654-4.41 6.256-4.41 10.143h-30c0-12.114 5.081-23.805 13.939-32.074 8.855-8.264 20.882-12.525 33.009-11.689 21.696 1.496 39.186 18.985 40.683 40.682 1.123 16.284-6.778 31.746-20.62 40.352-5.099 3.17-8.143 8.513-8.143 14.292v1.429z" fill="#555a66"/></g><g><path d="m376.677 340.643c-1.497-21.697-18.986-39.187-40.683-40.682-.119-.008-.237-.008-.356-.015v30.189c5.944 1.21 10.686 6.428 11.11 12.572.357 5.175-2.146 10.084-6.532 12.811-1.605.998-3.126 2.086-4.578 3.24v37.956h12.276v-1.428c0-5.779 3.044-11.122 8.143-14.292 13.842-8.605 21.743-24.067 20.62-40.351z" fill="#333940"/></g><g><path d="m317.915 407.646h30v24.071h-30z" fill="#555a66"/></g><g><path d="m335.639 407.646h12.276v24.071h-12.276z" fill="#333940"/></g></g></svg>