<svg id="Capa_1" enable-background="new 0 0 512 512" height="512" viewBox="0 0 512 512" width="512" xmlns="http://www.w3.org/2000/svg"><g><g><g><g><g><g><g><circle cx="256" cy="256" fill="#1dd882" r="256"/></g></g></g></g></g></g><path d="m512 256c0-28.068-4.517-55.08-12.864-80.35l-115.649-115.65-240.164 354.841 96.667 96.667c5.295.326 10.633.492 16.01.492 141.385 0 256-114.615 256-256z" fill="#06b26b"/><g><path d="m383.487 427.178h-208.731c-25.539 0-46.242-20.703-46.242-46.242v-282.24l254.973 38.696z" fill="#ffce00"/></g><g><path d="m383.487 137.393-127.367-19.33v309.115h127.367z" fill="#fdba12"/></g><g><path d="m383.487 137.393h-216.277c-21.371 0-38.696-17.325-38.696-38.696 0-21.372 17.325-38.697 38.696-38.697h216.277z" fill="#fff"/></g><g><path d="m256.12 60h127.366v77.393h-127.366z" fill="#e9edf5"/></g><g><g><path d="m271 278.737h-30v-1.722c0-18.484 9.509-35.431 25.438-45.335 6.262-3.894 9.836-10.9 9.326-18.285-.674-9.774-8.553-17.653-18.326-18.327-5.584-.383-10.895 1.488-14.952 5.275-4.062 3.792-6.299 8.938-6.299 14.489h-30c0-13.756 5.77-27.031 15.829-36.42 10.203-9.523 23.517-14.237 37.487-13.272 24.634 1.699 44.491 21.557 46.191 46.191 1.275 18.493-7.697 36.053-23.415 45.826-7.063 4.391-11.279 11.815-11.279 19.858z" fill="#555a66"/></g><g><path d="m305.693 211.331c-1.7-24.634-21.558-44.492-46.191-46.191-1.133-.078-2.259-.105-3.381-.109v30.014c.438.002.875-.006 1.317.024 9.773.674 17.652 8.553 18.326 18.327.51 7.384-3.064 14.391-9.326 18.285-3.828 2.38-7.274 5.175-10.317 8.292v38.765h14.879v-1.722c0-8.044 4.216-15.467 11.278-19.858 15.718-9.775 24.691-27.334 23.415-45.827z" fill="#333940"/></g><g><path d="m241 291.92h30v23.069h-30z" fill="#555a66"/></g><g><path d="m256.12 291.92h14.88v23.069h-14.88z" fill="#333940"/></g></g><g><path d="m182.424 355.659h28.659v30h-28.659z" fill="#fff"/></g><g><path d="m230.746 355.659h110.509v30h-110.509z" fill="#fff"/></g><g><path d="m256.12 355.659h85.134v30h-85.134z" fill="#e9edf5"/></g></g></svg>