<svg id="Capa_1" data-name="Capa 1" xmlns="http://www.w3.org/2000/svg" viewBox="0 0 60 60"><title>admin_on</title><path d="M19,45a4,4,0,1,0-4-4A4,4,0,0,0,19,45Zm0-6a2,2,0,1,1-2,2A2,2,0,0,1,19,39Z"/><path d="M44,12a4,4,0,1,0,4,4A4,4,0,0,0,44,12Zm0,6a2,2,0,1,1,2-2A2,2,0,0,1,44,18Z"/><path d="M19,49a8,8,0,1,0-8-8A8,8,0,0,0,19,49Zm0-14a6,6,0,1,1-6,6A6,6,0,0,1,19,35Z"/><path d="M59.19,36.91c.12-.5.22-1,.32-1.53,0,0,0-.05,0-.08v0a29.78,29.78,0,0,0-1.87-16.92.09.09,0,0,1,0-.05A30.06,30.06,0,0,0,53,10.76a30.62,30.62,0,0,0-3.68-3.7,30.14,30.14,0,0,0-7.62-4.69l0,0A29.87,29.87,0,0,0,30,0a30.61,30.61,0,0,0-5.1.44h0l-.08,0L23.6.69l-.06,0A29,29,0,0,0,18.9,2.14l-.41.16-.67.29-.64.3-.52.25-.14.07-.05,0-.17.09-.42.22-.37.2L15.09,4l-.5.29-.26.16c-.34.21-.69.43-1,.66l-.1.07-.53.36-.07.06c-.37.26-.74.54-1.1.82l0,0h0a30.24,30.24,0,0,0-4.52,4.39.25.25,0,0,0,0,.07A29.91,29.91,0,0,0,1.27,38.62v0l0,.09c.17.55.34,1.09.54,1.62.07.19.15.37.22.56s.24.62.38.92.27.62.42.93c.06.14.13.28.2.42A29.84,29.84,0,0,0,16.83,57l.4.19.95.43.88.35c.2.08.39.17.6.24.52.19,1.06.37,1.6.54l.1,0h0A29.94,29.94,0,0,0,43.85,56.6l.08,0,.22-.12.72-.41.67-.38c.42-.26.84-.53,1.24-.8l.52-.37.81-.59.44-.35.87-.71.32-.28q.52-.45,1-.93l.12-.12c.48-.46.95-.94,1.4-1.44,0,0,0,0,0,0a30.24,30.24,0,0,0,5.29-8.31c0-.11.08-.22.13-.33s.22-.52.32-.79v0A28.58,28.58,0,0,0,59.16,37ZM49,50.51l-.77.68-.29.25c-.2.18-.41.34-.62.51l-.48.37-.49.36-.46.33a4.64,4.64,0,0,0-.28-2.91,4.71,4.71,0,0,0-3.6-2.78l-1-.16V45.38l1-.19a4.72,4.72,0,0,0,2.92-7.42l-.63-.85,1.26-1.26,1.28.87a4.71,4.71,0,0,0,7.27-3L54.38,32h1.78l.16,1a4.63,4.63,0,0,0,1.14,2.41,27.45,27.45,0,0,1-1,3.61,6.5,6.5,0,0,0-6.24,10.24c-.35.37-.71.74-1.09,1.09Zm6.29-8.61a28.63,28.63,0,0,1-3.72,5.86A4.43,4.43,0,0,1,51,45.5,4.51,4.51,0,0,1,55.5,41h.23l-.35.78ZM44,28A12,12,0,0,1,41.18,4.34a27.76,27.76,0,0,1,5.47,3.17l.1.07c.28.21.55.42.81.64l.26.2.59.51.43.37.22.21c.51.47,1,1,1.47,1.47l.16.18c.14.14.26.3.39.44s.34.38.5.58l.21.27c.21.26.43.52.63.8a1,1,0,0,1,.08.11,27.93,27.93,0,0,1,3.16,5.46A12,12,0,0,1,44,28ZM23.23,2.83a4,4,0,0,0,3.14,4.72l.63.12V8.76l-.67.1A4,4,0,0,0,23.65,15l.36.54-.77.76-.17-.13a4,4,0,0,0-6.28,2.6l0,.22H15.67l-.12-.63a3.94,3.94,0,0,0-2.45-3,4,4,0,0,0-3.8.49l-.54.4L8,15.55,8.35,15a3.89,3.89,0,0,0,.51-3.34l.3-.34c.25-.29.52-.57.78-.84s.56-.56.85-.83l.4-.37a5,5,0,1,0,8-5.12c.62-.25,1.24-.48,1.87-.7l.19-.06C21.9,3.19,22.56,3,23.23,2.83ZM13,7.77l.24-.19c.4-.3.82-.58,1.23-.86.21-.14.41-.28.61-.4l.08-.05c.42-.27.86-.51,1.29-.75L17,5.19A3,3,0,1,1,13,8,1.85,1.85,0,0,1,13,7.77Zm.11,18.35.08,0,.1-.06A16,16,0,0,1,33.65,47.45l0,0s0,0,0,.06a15.9,15.9,0,0,1-11.88,9.19h0c-.49-.15-1-.32-1.46-.5L19.58,56l-.68-.28L18,55.3l-.32-.16A28.17,28.17,0,0,1,4.85,42.3L4.7,42c-.14-.29-.27-.59-.4-.89L4,40.41c-.08-.22-.18-.44-.26-.66-.18-.48-.35-1-.5-1.46h0A15.87,15.87,0,0,1,13.12,26.12Zm12.6,31.55A17.81,17.81,0,0,0,35,49.22l1.57.69a1,1,0,1,0,.82-1.82l-1.57-.7A18.07,18.07,0,0,0,37,41a17.77,17.77,0,0,0-.9-5.58l1.26-.49a1,1,0,1,0-.72-1.86l-1.27.49A18.08,18.08,0,0,0,27.21,25l.7-1.59a1,1,0,0,0-1.82-.82l-.71,1.6A17.81,17.81,0,0,0,19,23a18.06,18.06,0,0,0-5.58.89l-.49-1.25a1,1,0,1,0-1.86.72l.48,1.25a17.8,17.8,0,0,0-9.22,9.67A27.89,27.89,0,0,1,5.77,16a1,1,0,0,0,.22.38l2,1.95a1,1,0,0,0,1.3.1l1.23-.9a2,2,0,0,1,1.89-.25,2,2,0,0,1,1.22,1.47l.27,1.44a1,1,0,0,0,1,.81h2.76a1,1,0,0,0,1-.85l.17-1.06A1.93,1.93,0,0,1,20,17.57a2,2,0,0,1,1.92.23l.87.63a1,1,0,0,0,1.3-.1l2-1.95a1,1,0,0,0,.12-1.27l-.83-1.22a2,2,0,0,1-.17-1.9,1.9,1.9,0,0,1,1.51-1.15l1.51-.24a1,1,0,0,0,.85-1V6.84a1,1,0,0,0-.81-1l-1.45-.27a2,2,0,0,1-1.21-3.11l.1-.14A28.63,28.63,0,0,1,30,2a27.81,27.81,0,0,1,8.26,1.25,13.76,13.76,0,0,0-3.41,2.18l-.75-.74A1,1,0,1,0,32.69,6.1l.75.75A14.05,14.05,0,0,0,30,15H29a1,1,0,0,0,0,2h1.05a13.93,13.93,0,0,0,3.38,8.15l-.74.75a1,1,0,0,0,0,1.41,1,1,0,0,0,1.41,0l.75-.74A13.93,13.93,0,0,0,43,30V31a1,1,0,0,0,2,0V30a14.05,14.05,0,0,0,8.15-3.4l.75.75a1,1,0,0,0,1.41,0,1,1,0,0,0,0-1.41l-.74-.75a13.82,13.82,0,0,0,2.18-3.42A27.92,27.92,0,0,1,58,30c0,.26,0,.51,0,.77A1,1,0,0,0,57,30H53.56a1,1,0,0,0-1,.81l-.45,2.33a2.72,2.72,0,0,1-4.19,1.74l-2-1.34a1,1,0,0,0-1.27.13l-2.45,2.44a1,1,0,0,0-.1,1.3L43.29,39a2.72,2.72,0,0,1-1.67,4.27l-1.81.35a1,1,0,0,0-.81,1V48a1,1,0,0,0,.85,1l1.89.29a2.71,2.71,0,0,1,1.84,4.2l-1,1.52A27.86,27.86,0,0,1,30,58,27.56,27.56,0,0,1,25.72,57.67Z"/></svg>