<svg id="Capa_1" data-name="Capa 1" xmlns="http://www.w3.org/2000/svg" viewBox="0 0 54 54"><defs><style>.cls-1{fill:#f7f00f;}</style></defs><title>hint</title><path class="cls-1" d="M27,8a17,17,0,0,0-6,32.9V50a1,1,0,0,0,1,1h1v2a1,1,0,0,0,1,1h6a1,1,0,0,0,1-1V51h1a1,1,0,0,0,1-1V40.9A17,17,0,0,0,27,8Zm3,41a1,1,0,0,0-1,1v2H25V50a1,1,0,0,0-1-1H23V44h8v5Zm1.69-9.76a1,1,0,0,0-.69.95V42H23V40.19a1,1,0,0,0-.69-.95,15,15,0,1,1,9.38,0Z"/><path class="cls-1" d="M27,6a1,1,0,0,0,1-1V1a1,1,0,0,0-2,0V5A1,1,0,0,0,27,6Z"/><path class="cls-1" d="M51,24H47a1,1,0,0,0,0,2h4a1,1,0,0,0,0-2Z"/><path class="cls-1" d="M7,24H3a1,1,0,0,0,0,2H7a1,1,0,0,0,0-2Z"/><path class="cls-1" d="M43.26,7.32l-2.82,2.83a1,1,0,0,0,0,1.41,1,1,0,0,0,1.41,0l2.83-2.82a1,1,0,0,0-1.42-1.42Z"/><path class="cls-1" d="M12.15,38.44,9.32,41.26a1,1,0,0,0,0,1.42A1,1,0,0,0,10,43a1,1,0,0,0,.71-.29l2.82-2.83a1,1,0,0,0,0-1.41A1,1,0,0,0,12.15,38.44Z"/><path class="cls-1" d="M41.85,38.44a1,1,0,0,0-1.41,0,1,1,0,0,0,0,1.41l2.82,2.83a1,1,0,0,0,1.42,0,1,1,0,0,0,0-1.42Z"/><path class="cls-1" d="M12.15,11.56a1,1,0,0,0,1.41,0,1,1,0,0,0,0-1.41L10.74,7.32A1,1,0,0,0,9.32,8.74Z"/><path class="cls-1" d="M27,13A12,12,0,0,0,15,25a1,1,0,0,0,2,0A10,10,0,0,1,27,15a1,1,0,0,0,0-2Z"/></svg>