<svg id="Capa_1" data-name="Capa 1" xmlns="http://www.w3.org/2000/svg" viewBox="0 0 60 60"><defs><style>.cls-1{fill:#ccc;}</style></defs><title>rank_off</title><path class="cls-1" d="M55,45.39l-9.55-4.78A2.62,2.62,0,0,1,44,38.25V34.87c.23-.28.47-.6.72-.95a22.8,22.8,0,0,0,3-5.8A4,4,0,0,0,50,24.5v-4a4,4,0,0,0-1-2.62V12.56A8.94,8.94,0,0,0,46.91,6C44.85,3.69,41.52,2.5,37,2.5S29.15,3.69,27.09,6A8.68,8.68,0,0,0,25,10.83,13.1,13.1,0,0,0,19,9.5c-10.39,0-11,8.85-11,9v4.58a3.46,3.46,0,0,0-1,2.33v3.45a3.57,3.57,0,0,0,1.31,2.77A15.32,15.32,0,0,0,12,37.91v2.75a2.15,2.15,0,0,1-1.17,1.91L4.13,46.74A7.92,7.92,0,0,0,0,53.7v3.8H60v-4A9,9,0,0,0,55,45.39ZM14,53.26V55.5H2V53.7a5.94,5.94,0,0,1,3.14-5.23l6.65-4.17A4.13,4.13,0,0,0,14,40.66V37.07l-.31-.3a13.31,13.31,0,0,1-3.47-6l-.09-.39-.35-.22A1.59,1.59,0,0,1,9,28.86V25.41a1.71,1.71,0,0,1,.67-1.17l.33-.3V18.56c0-.29.54-7.06,9-7.06a10.42,10.42,0,0,1,6,1.64v4.74a4,4,0,0,0-1,2.62v4a3.8,3.8,0,0,0,.1.89c0,.12.08.22.12.34a3.34,3.34,0,0,0,.18.5h0a4,4,0,0,0,1.1,1.38s0,0,0,.05c.06.23.13.46.19.68l.09.26s0,.1,0,.14.07.22.11.32l.19.56c0,.08.07.15.1.23s.16.41.25.61l.06.15.05.13.08.16q.15.33.3.63a.41.41,0,0,0,.05.09l.18.37.32.59c.06.09.11.18.16.27l.41.68.09.13c.24.38.45.68.62.92l.13.17.07.09v3.31a2.64,2.64,0,0,1-1.38,2.32L25,41.92l-.47,0-.18.39L18.7,45.34A9,9,0,0,0,14,53.26ZM58,55.5H16V53.26a7,7,0,0,1,3.66-6.16l8.92-4.87A4.65,4.65,0,0,0,31,38.15v-4h0l-.19-.24,0,0-.17-.21,0,0-.18-.26h0l-.54-.8v0c-.1-.16-.21-.32-.31-.5l0,0c-.22-.38-.46-.81-.7-1.28h0c-.13-.26-.26-.53-.38-.81h0l-.05-.11h0l-.17-.39-.06-.15L28,28.85c-.1-.27-.2-.55-.29-.85l-.05-.17a.14.14,0,0,1,0-.07,9.15,9.15,0,0,1-.26-1l-.09-.39-.34-.22A2,2,0,0,1,26,24.5v-4A2,2,0,0,1,26.67,19l.33-.29V12.15l0,0A6.93,6.93,0,0,1,28.6,7.35C30.25,5.46,33.08,4.5,37,4.5s6.73,1,8.39,2.83a7.08,7.08,0,0,1,1.62,5v6.36l.33.3A2,2,0,0,1,48,20.5v4a2,2,0,0,1-1.42,1.9l-.5.15-.16.5a21,21,0,0,1-2.83,5.71c-.3.42-.59.79-.84,1.08l-.25.28v4.13a4.6,4.6,0,0,0,2.57,4.15l9.55,4.78A7,7,0,0,1,58,53.46Z"/></svg>