<svg id="Layer_1" data-name="Layer 1" xmlns="http://www.w3.org/2000/svg" xmlns:xlink="http://www.w3.org/1999/xlink" viewBox="0 0 50 50"><defs><style>.cls-1,.cls-5{fill:#fff;}.cls-1,.cls-2,.cls-3{stroke:#000;stroke-miterlimit:10;}.cls-2{fill:none;}.cls-4{isolation:isolate;}</style></defs><title>solomon</title><path class="cls-1" d="M11,39.6a14,14,0,1,1,28-1.8v1.8"/><path class="cls-1" d="M34.7,19.2a9.7,9.7,0,0,1-19.4,0"/><polygon class="cls-1" points="34.8 13.9 34.8 10.4 29.9 10.4 29.9 13.9 27.5 13.9 27.5 10.4 22.5 10.4 22.5 13.9 20.1 13.9 20.1 10.4 15.1 10.4 15.1 13.9 15.1 19.4 34.8 19.4 34.8 13.9"/><path class="cls-1" d="M19.9,32.7V27.2c0-2.1,2.3-3.7,5.1-3.7h0c2.8,0,5.1,1.7,5.1,3.7v5.5"/><line class="cls-2" x1="23.5" y1="32.7" x2="23.5" y2="28.8"/><line class="cls-2" x1="26.5" y1="28.8" x2="26.5" y2="32.7"/><circle class="cls-3" cx="19.9" cy="22.2" r="0.5"/><circle class="cls-3" cx="30.1" cy="22.2" r="0.5"/><ellipse class="cls-1" cx="25" cy="26.6" rx="2.7" ry="1.1"/><polyline class="cls-1" points="6.8 39.6 6.8 20.9 8.3 20.9 8.3 39.6"/><image class="cls-4" width="25" height="24" transform="translate(-5 6)" xlink:href="E00FF0D7.png"/><circle class="cls-5" cx="7.6" cy="20.9" r="2.3"/><circle class="cls-2" cx="7.6" cy="20.9" r="2.3"/></svg>