<svg id="Capa_1" data-name="Capa 1" xmlns="http://www.w3.org/2000/svg" viewBox="0 0 55 55"><defs><style>.cls-1{fill:#ccc;}</style></defs><title>user_off</title><path class="cls-1" d="M55,27.5A27.5,27.5,0,1,0,8.93,47.76l0,0,.89.75.18.14c.47.39,1,.77,1.47,1.13l.49.34c.53.37,1.08.72,1.64,1l.37.21c.61.35,1.23.68,1.88,1l.14.07a27.28,27.28,0,0,0,6.65,2.1l.18,0c.73.12,1.46.22,2.2.29l.27,0c.74.06,1.48.1,2.24.1s1.49,0,2.22-.1l.28,0c.74-.07,1.46-.16,2.18-.29l.19,0a27.44,27.44,0,0,0,6.55-2.05l.23-.11c.62-.29,1.22-.6,1.81-.93l.44-.26c.54-.31,1.07-.65,1.58-1,.19-.12.37-.26.55-.39.44-.31.87-.64,1.29-1,.09-.08.19-.14.29-.22l.91-.76,0,0A27.42,27.42,0,0,0,55,27.5Zm-53,0A25.5,25.5,0,1,1,44.41,46.56a7.45,7.45,0,0,0-.89-.53l-8.47-4.24a2.21,2.21,0,0,1-1.23-2v-3c.19-.24.4-.51.62-.81a20.49,20.49,0,0,0,2.61-5.13,3.62,3.62,0,0,0,2.09-3.29V24.07a3.63,3.63,0,0,0-.89-2.37V17a8,8,0,0,0-1.88-5.86C34.52,9.06,31.54,8,27.5,8s-7,1.07-8.87,3.17A8,8,0,0,0,16.75,17V21.7a3.63,3.63,0,0,0-.89,2.37v3.54a3.65,3.65,0,0,0,1.34,2.82,18.59,18.59,0,0,0,3.1,6.39v2.9a2.22,2.22,0,0,1-1.17,2L11.23,46a6.78,6.78,0,0,0-.76.47A25.46,25.46,0,0,1,2,27.5ZM42.46,48.13c-.35.26-.71.5-1.07.74l-.5.32c-.47.29-1,.57-1.44.83l-.33.17a25.91,25.91,0,0,1-3.48,1.47l-.13,0c-.63.21-1.26.4-1.91.56h0c-.65.16-1.31.29-2,.4h-.05c-.62.1-1.25.17-1.87.23l-.34,0c-.62,0-1.24.08-1.87.08s-1.27,0-1.9-.08l-.32,0c-.64-.06-1.27-.13-1.89-.24h-.08a25.43,25.43,0,0,1-3.89-1l-.12,0c-.63-.22-1.25-.45-1.86-.72h0c-.58-.25-1.14-.53-1.7-.82L15.5,50c-.51-.27-1-.57-1.51-.88l-.43-.28c-.45-.29-.9-.6-1.34-.93l-.13-.1.09-.06,7.91-4.31a4.22,4.22,0,0,0,2.21-3.71V36.11l-.23-.27a16.65,16.65,0,0,1-3-6.22l-.09-.4L18.63,29a1.66,1.66,0,0,1-.77-1.39V24.07a1.65,1.65,0,0,1,.56-1.23l.33-.29V16.84a6,6,0,0,1,1.4-4.36C21.58,10.84,24.06,10,27.5,10s5.9.83,7.35,2.47a6.13,6.13,0,0,1,1.41,4.38v5.7l.33.3a1.61,1.61,0,0,1,.56,1.22v3.54A1.68,1.68,0,0,1,36,29.19l-.5.15-.16.5a18.48,18.48,0,0,1-2.5,5,11.5,11.5,0,0,1-.73,1l-.25.28v3.7a4.21,4.21,0,0,0,2.34,3.78l8.46,4.24.16.08Z"/></svg>